<?xml version="1.0" standalone="no"?><!DOCTYPE svg PUBLIC "-//W3C//DTD SVG 1.1//EN" "http://www.w3.org/Graphics/SVG/1.1/DTD/svg11.dtd"><svg t="1736731047160" class="icon" viewBox="0 0 1024 1024" version="1.1" xmlns="http://www.w3.org/2000/svg" p-id="4430" xmlns:xlink="http://www.w3.org/1999/xlink" width="64" height="64"><path d="M707.242667 316.074667H312.661333v394.922666h394.922667V316.074667z m296.277333 147.797333V365.226667h-98.645333V217.088c0-54.613333-44.373333-98.645333-98.645334-98.645333h-148.138666V19.797333h-98.645334v98.645334H460.8V19.797333h-98.986667v98.645334H213.674667c-54.613333 0-98.645333 44.373333-98.645334 98.645333V365.226667H16.384v98.645333h98.645333v98.645333H16.384v98.645334h98.645333v148.138666c0 54.613333 44.373333 98.645333 98.645334 98.645334H361.813333v98.986666h98.645334v-98.645333h98.645333V1006.933333h98.645333v-98.645333h148.138667c54.613333 0 98.645333-44.373333 98.645333-98.645333v-148.138667h98.986667v-98.645333h-98.645333V464.213333H1003.52v-0.341333z m-197.632 345.429333H213.674667V217.088h592.213333v592.213333z m0 0" p-id="4431" fill="#1296db"></path></svg>