<?xml version="1.0" standalone="no"?><!DOCTYPE svg PUBLIC "-//W3C//DTD SVG 1.1//EN" "http://www.w3.org/Graphics/SVG/1.1/DTD/svg11.dtd"><svg t="1736738033754" class="icon" viewBox="0 0 1024 1024" version="1.1" xmlns="http://www.w3.org/2000/svg" p-id="6304" xmlns:xlink="http://www.w3.org/1999/xlink" width="64" height="64"><path d="M0.020455 85.957721l511.978511 0 0 170.657798-511.978511 0 0-170.657798Z" fill="#1296db" p-id="6305"></path><path d="M256.010733 313.503157l511.978511 0 0 170.657798-511.978511 0 0-170.657798Z" fill="#1296db" p-id="6306"></path><path d="M512.001012 541.051663l511.978511 0 0 170.657798-511.978511 0 0-170.657798Z" fill="#1296db" p-id="6307"></path><path d="M511.998965 768.599146l511.978511 0 0 170.659845-511.978511 0 0-170.659845Z" fill="#1296db" p-id="6308"></path><path d="M142.235457 370.390795 142.235457 313.503157 85.347819 313.503157 85.347819 427.276387 199.123095 427.276387 199.123095 370.390795Z" fill="#1296db" p-id="6309"></path><path d="M398.225735 654.823869 455.113374 654.823869 455.113374 597.939301 398.225735 597.939301 398.225735 541.051663 341.338097 541.051663 341.338097 882.370329 455.113374 882.370329 455.113374 825.484737 398.225735 825.484737Z" fill="#1296db" p-id="6310"></path></svg>