<?xml version="1.0" standalone="no"?><!DOCTYPE svg PUBLIC "-//W3C//DTD SVG 1.1//EN" "http://www.w3.org/Graphics/SVG/1.1/DTD/svg11.dtd"><svg t="1736730592433" class="icon" viewBox="0 0 1024 1024" version="1.1" xmlns="http://www.w3.org/2000/svg" p-id="3395" xmlns:xlink="http://www.w3.org/1999/xlink" width="64" height="64"><path d="M346.448519 626.820874c0-78.713681-53.438646-145.150917-126.375176-164.648801V0H131.971791v462.172073c-72.575458 19.497884-126.375176 85.93512-126.375176 164.648801s53.438646 145.150917 126.375176 164.648802v232.530324H220.434415v-232.530324c72.575458-19.858956 126.014104-85.93512 126.014104-164.648802z m-126.375176 78.35261c-2.166432 1.444288-4.693935 2.527504-7.221439 3.610719 0 0-0.361072 0-0.361072 0.361072-2.166432 1.083216-4.693935 1.80536-6.860367 2.888575-0.361072 0-0.722144 0.361072-1.444287 0.361072-0.722144 0.361072-1.444288 0.361072-2.166432 0.722144-1.083216 0.361072-1.80536 0.722144-2.888575 0.722144-0.722144 0-1.083216 0.361072-1.80536 0.361072-0.722144 0.361072-1.444288 0.361072-2.166432 0.361072-0.361072 0-1.083216 0.361072-1.444287 0.361072-1.083216 0.361072-2.166432 0.361072-3.61072 0.722144-0.361072 0-0.722144 0-1.083215 0.361072-1.083216 0-2.166432 0.361072-3.249648 0.361072h-0.722144c-1.444288 0-2.527504 0.361072-3.971791 0.361072h-10.110014c-1.444288 0-2.527504 0-3.971791-0.361072H166.273625c-1.083216 0-2.166432-0.361072-3.249648-0.361072-0.361072 0-0.722144 0-1.083215-0.361072-1.083216-0.361072-2.527504-0.361072-3.61072-0.722144-0.361072 0-1.083216-0.361072-1.444287-0.361072-0.722144 0-1.444288-0.361072-2.166432-0.361072-0.722144 0-1.083216-0.361072-1.80536-0.361072-1.083216-0.361072-2.166432-0.722144-2.888575-0.722144-0.722144-0.361072-1.444288-0.361072-2.166432-0.722144-0.361072 0-1.083216-0.361072-1.444287-0.361072-2.527504-0.722144-4.693935-1.80536-6.860367-2.888575-0.361072 0-0.361072 0-0.722144-0.361072-2.527504-1.083216-4.693935-2.166432-7.221439-3.610719-27.441467-15.526093-45.856135-44.77292-45.856135-78.35261 0-33.57969 18.414669-62.826516 45.856135-78.352609 2.166432-1.444288 4.693935-2.527504 7.221439-3.610719 0.361072 0 0.361072 0 0.722144-0.361072 2.166432-1.083216 4.693935-1.80536 6.860367-2.888576 0.361072 0 0.722144-0.361072 1.444287-0.361071 0.722144-0.361072 1.444288-0.361072 2.166432-0.722144 1.083216-0.361072 1.80536-0.722144 2.888575-0.722144 0.722144 0 1.083216-0.361072 1.80536-0.361072 0.722144-0.361072 1.444288-0.361072 2.166432-0.361072 0.361072 0 1.083216-0.361072 1.444287-0.361072 1.083216-0.361072 2.166432-0.361072 3.61072-0.722144 0.361072 0 0.722144 0 1.083215-0.361072 1.083216 0 2.166432-0.361072 3.249648-0.361072h0.722144c1.444288 0 2.527504-0.361072 3.971791-0.361072h10.110014c1.444288 0 2.527504 0 3.971791 0.361072h0.722144c1.083216 0 2.166432 0.361072 3.249648 0.361072 0.361072 0 0.722144 0 1.083215 0.361072 1.083216 0.361072 2.527504 0.361072 3.61072 0.722144 0.361072 0 1.083216 0.361072 1.444287 0.361072 0.722144 0 1.444288 0.361072 2.166432 0.361072 0.722144 0 1.083216 0.361072 1.80536 0.361072 1.083216 0.361072 2.166432 0.722144 2.888575 0.722144 0.722144 0.361072 1.444288 0.361072 2.166432 0.722144 0.361072 0 0.722144 0.361072 1.444287 0.361071 2.527504 0.722144 4.693935 1.80536 6.860367 2.888576 0 0 0.361072 0 0.361072 0.361072 2.527504 1.083216 5.055007 2.166432 7.221439 3.610719 27.441467 15.526093 45.856135 44.77292 45.856135 78.352609 0 33.57969-18.414669 62.826516-45.856135 78.35261zM682.245416 335.435825c0-78.713681-53.438646-145.150917-126.375176-164.648801V0h-88.462624v170.787024c-72.575458 19.497884-126.375176 85.93512-126.375176 164.648801s53.438646 145.150917 126.375176 164.648801v523.554302H556.231312v-523.554302c72.575458-19.497884 126.014104-85.93512 126.014104-164.648801zM556.231312 414.149506c-2.166432 1.444288-4.693935 2.527504-7.221439 3.61072-0.361072 0-0.361072 0-0.722144 0.361072-2.166432 1.083216-4.693935 1.80536-6.860367 2.888575-0.361072 0-0.722144 0.361072-1.444287 0.361072-0.722144 0.361072-1.444288 0.361072-2.166432 0.722144-1.083216 0.361072-1.80536 0.722144-2.888575 0.722144-0.722144 0-1.083216 0.361072-1.80536 0.361072-0.722144 0.361072-1.444288 0.361072-2.166432 0.361072-0.361072 0-1.083216 0.361072-1.444287 0.361072-1.083216 0.361072-2.166432 0.361072-3.61072 0.722143-0.361072 0-0.722144 0-1.083215 0.361072-1.083216 0-2.166432 0.361072-3.249648 0.361072h-0.722144c-1.444288 0-2.527504 0.361072-3.971791 0.361072h-10.110014c-1.444288 0-2.527504 0-3.971791-0.361072h-0.722144c-1.083216 0-2.166432-0.361072-3.249648-0.361072-0.361072 0-0.722144 0-1.083215-0.361072-1.083216-0.361072-2.527504-0.361072-3.61072-0.722143-0.361072 0-1.083216-0.361072-1.444287-0.361072-0.722144 0-1.444288-0.361072-2.166432-0.361072-0.722144 0-1.083216-0.361072-1.80536-0.361072-1.083216-0.361072-2.166432-0.722144-2.888575-0.722144-0.722144-0.361072-1.444288-0.361072-2.166432-0.722144-0.361072 0-0.722144-0.361072-1.444287-0.361072-2.527504-0.722144-4.693935-1.80536-6.860367-2.888575 0 0-0.361072 0-0.361072-0.361072-2.527504-1.083216-5.055007-2.166432-7.221439-3.61072-27.441467-15.526093-45.856135-44.77292-45.856135-78.352609s18.414669-62.826516 45.856135-78.352609c2.166432-1.444288 4.693935-2.527504 7.221439-3.61072 0 0 0.361072 0 0.361072-0.361072 2.166432-1.083216 4.693935-1.80536 6.860367-2.888575 0.361072 0 0.722144-0.361072 1.444287-0.361072 0.722144-0.361072 1.444288-0.361072 2.166432-0.722144 1.083216-0.361072 1.80536-0.722144 2.888575-0.722144 0.722144 0 1.083216-0.361072 1.80536-0.361072 0.722144-0.361072 1.444288-0.361072 2.166432-0.361072 0.361072 0 1.083216-0.361072 1.444287-0.361071 1.083216-0.361072 2.166432-0.361072 3.61072-0.722144 0.361072 0 0.722144 0 1.083215-0.361072 1.083216 0 2.166432-0.361072 3.249648-0.361072h0.722144c1.444288 0 2.527504-0.361072 3.971791-0.361072h10.110014c1.444288 0 2.527504 0 3.971791 0.361072h0.722144c1.083216 0 2.166432 0.361072 3.249648 0.361072 0.361072 0 0.722144 0 1.083215 0.361072 1.083216 0.361072 2.527504 0.361072 3.61072 0.722144 0.361072 0 1.083216 0.361072 1.444287 0.361071 0.722144 0 1.444288 0.361072 2.166432 0.361072 0.722144 0 1.083216 0.361072 1.80536 0.361072 1.083216 0.361072 2.166432 0.722144 2.888575 0.722144 0.722144 0.361072 1.444288 0.361072 2.166432 0.722144 0.361072 0 0.722144 0.361072 1.444287 0.361072 2.527504 0.722144 4.693935 1.80536 6.860367 2.888575 0 0 0.361072 0 0.361072 0.361072 2.527504 1.083216 5.055007 2.166432 7.221439 3.61072 27.441467 15.526093 45.856135 44.77292 45.856135 78.352609s-18.053597 62.826516-45.495063 78.352609zM1018.403385 771.249647c0-78.713681-53.438646-145.150917-126.375176-164.648801V0h-88.462624v606.961918c-72.575458 19.497884-126.375176 85.93512-126.375176 164.648801s53.438646 145.150917 126.375176 164.648801v87.74048H892.028209v-87.74048c72.93653-19.858956 126.375176-86.296192 126.375176-165.009873z m-126.375176 78.713682c-2.166432 1.444288-4.693935 2.527504-7.221439 3.610719 0 0-0.361072 0-0.361072 0.361072-2.166432 1.083216-4.693935 1.80536-6.860367 2.888575-0.361072 0-0.722144 0.361072-1.444287 0.361072-0.722144 0.361072-1.444288 0.361072-2.166432 0.722144-1.083216 0.361072-1.80536 0.722144-2.888575 0.722144-0.722144 0-1.083216 0.361072-1.80536 0.361072-0.722144 0.361072-1.444288 0.361072-2.166432 0.361072-0.361072 0-1.083216 0.361072-1.444287 0.361072-1.083216 0.361072-2.166432 0.361072-3.61072 0.722144-0.361072 0-0.722144 0-1.083215 0.361072-1.083216 0-2.166432 0.361072-3.249648 0.361072h-0.722144c-1.444288 0-2.527504 0.361072-3.971791 0.361071h-10.110014c-1.444288 0-2.527504 0-3.971791-0.361071h-0.722144c-1.083216 0-2.166432-0.361072-3.249648-0.361072-0.361072 0-0.722144 0-1.083215-0.361072-1.083216-0.361072-2.527504-0.361072-3.61072-0.722144-0.361072 0-1.083216-0.361072-1.444287-0.361072-0.722144 0-1.444288-0.361072-2.166432-0.361072-0.722144 0-1.083216-0.361072-1.80536-0.361072-1.083216-0.361072-2.166432-0.722144-2.888575-0.722144-0.722144-0.361072-1.444288-0.361072-2.166432-0.722144-0.361072 0-0.722144-0.361072-1.444287-0.361072-2.527504-0.722144-4.693935-1.80536-6.860367-2.888575-0.361072 0-0.361072 0-0.722144-0.361072-2.527504-1.083216-5.055007-2.166432-7.221439-3.610719-27.441467-15.526093-45.856135-44.77292-45.856135-78.35261s18.414669-62.826516 45.856135-78.352609c2.166432-1.444288 4.693935-2.527504 7.221439-3.610719 0 0 0.361072 0 0.361072-0.361072 2.166432-1.083216 4.693935-1.80536 6.860367-2.888576 0.361072 0 0.722144-0.361072 1.444287-0.361072 0.722144-0.361072 1.444288-0.361072 2.166432-0.722143 1.083216-0.361072 1.80536-0.722144 2.888575-0.722144 0.722144 0 1.083216-0.361072 1.80536-0.361072 0.722144-0.361072 1.444288-0.361072 2.166432-0.361072 0.361072 0 1.083216-0.361072 1.444287-0.361072 1.083216-0.361072 2.166432-0.361072 3.61072-0.722144 0.361072 0 0.722144 0 1.083216-0.361072 1.083216 0 2.166432-0.361072 3.249647-0.361072h0.722144c1.444288 0 2.527504-0.361072 3.971791-0.361072h10.110014c1.444288 0 2.527504 0 3.971791 0.361072h0.722144c1.083216 0 2.166432 0.361072 3.249648 0.361072 0.361072 0 0.722144 0 1.083215 0.361072 1.083216 0.361072 2.527504 0.361072 3.61072 0.722144 0.361072 0 1.083216 0.361072 1.444287 0.361072 0.722144 0 1.444288 0.361072 2.166432 0.361072 0.722144 0 1.083216 0.361072 1.80536 0.361072 1.083216 0.361072 2.166432 0.722144 2.888575 0.722144 0.722144 0.361072 1.444288 0.361072 2.166432 0.722143 0.361072 0 0.722144 0.361072 1.444288 0.361072 2.527504 0.722144 4.693935 1.80536 6.860366 2.888576 0 0 0.361072 0 0.361072 0.361072 2.527504 1.083216 5.055007 2.166432 7.221439 3.610719 27.441467 15.526093 45.856135 44.77292 45.856135 78.352609s-18.053597 62.826516-45.495063 78.35261z" fill="#1296db" p-id="3396"></path></svg>